<svg width="236" height="236" viewBox="0 0 236 236" fill="none" xmlns="http://www.w3.org/2000/svg">
<g id="admin-svgrepo-com (1) 1" clip-path="url(#clip0_66_170)">
<path id="Vector" fill-rule="evenodd" clip-rule="evenodd" d="M120.916 0.666332L211.79 43.4658C214.22 44.618 215.775 47.0614 215.775 49.7545V123.692C215.775 183.872 163.632 212.164 125.581 232.835L121.291 235.167C120.25 235.722 119.112 236.014 117.96 236.014C116.821 236.014 115.683 235.722 114.642 235.167L110.352 232.835C72.2867 212.164 20.1583 183.872 20.1583 123.692V49.7542C20.1583 47.0611 21.7132 44.6178 24.1425 43.4655L115.016 0.666209C116.877 -0.222232 119.056 -0.22211 120.916 0.666332ZM93.0587 47.1167C71.4162 47.1167 53.8133 64.7334 53.8133 86.376C53.8133 108.019 71.4162 125.621 93.0587 125.621C93.2947 125.621 93.5307 125.621 93.7667 125.608L100.958 132.799H111.245V147.153H125.599V157.454L136.857 168.698H175.381V130.175L132.29 87.0702C132.304 86.8481 132.304 86.6121 132.304 86.3761C132.304 64.7336 114.701 47.1168 93.0587 47.1168V47.1167ZM93.0587 60.9991C107.038 60.9991 118.422 72.3964 118.297 87.6253L117.811 92.2066L161.499 135.922V154.816H142.605L139.481 151.706V133.271H125.127V118.916H106.705L98.8614 111.087L93.0586 111.739C79.079 111.739 67.6955 100.369 67.6955 86.376C67.6955 72.3964 79.079 60.9991 93.0586 60.9991H93.0587ZM93.6709 76.3612C87.9236 76.3612 83.2592 81.0257 83.2592 86.773C83.2592 92.5204 87.9236 97.1848 93.671 97.1848C99.4182 97.1848 104.083 92.5204 104.083 86.773C104.083 81.0257 99.4181 76.3612 93.6709 76.3612Z" fill="#3C466E"/>
</g>
<defs>
<clipPath id="clip0_66_170">
<rect width="236" height="236" fill="white"/>
</clipPath>
</defs>
</svg>
