<svg width="236" height="236" viewBox="0 0 236 236" fill="none" xmlns="http://www.w3.org/2000/svg">
<g id="student-cap-svgrepo-com 1" clip-path="url(#clip0_66_21)">
<g id="Group">
<path id="Vector" d="M233.159 83.1614L128.724 35.0884C125.336 33.5281 121.728 32.7408 118 32.7408C114.272 32.7408 110.665 33.5281 107.276 35.0884L2.84076 83.1614C1.11455 83.9593 0 85.6984 0 87.5989C0 89.4993 1.11455 91.2384 2.84076 92.0363L107.276 140.109C110.664 141.67 114.272 142.461 118 142.461C121.728 142.461 125.336 141.67 128.725 140.109L211.146 102.171V140.374C207.875 140.743 205.324 143.527 205.324 146.891C205.324 149.822 207.264 152.36 210.028 153.168L204.455 189.947H230.118L224.545 153.168C227.309 152.36 229.249 149.822 229.249 146.891C229.249 143.527 226.698 140.743 223.427 140.374V96.5171L233.16 92.0363C234.886 91.2384 236.001 89.4993 236.001 87.5989C236.001 85.6984 234.885 83.9593 233.159 83.1614Z" fill="#008E4C"/>
<path id="Vector_2" d="M118 159.867C112.816 159.867 107.793 158.765 103.072 156.593L51.9905 133.077V179.926C51.9905 190.211 83.0697 203.259 118 203.259C152.931 203.259 184.01 190.211 184.01 179.926V133.077L132.926 156.593C128.207 158.765 123.186 159.867 118 159.867Z" fill="#008E4C"/>
</g>
</g>
<defs>
<clipPath id="clip0_66_21">
<rect width="236" height="236" fill="white"/>
</clipPath>
</defs>
</svg>
