<svg width="120" height="120" viewBox="0 0 120 120" fill="none" xmlns="http://www.w3.org/2000/svg">
<g id="computer-svgrepo-com 1">
<path id="Vector" d="M60.5238 110.864C56.3416 110.902 52.9217 107.536 52.8879 103.354L52.7585 87.316C52.743 85.3074 53.5259 83.375 54.935 81.9435C56.3441 80.5121 58.264 79.699 60.2726 79.6829C64.4529 79.65 67.8701 83.0119 67.9066 87.1979L68.0332 103.232C68.0688 107.414 64.7041 110.835 60.5238 110.864Z" fill="#E5226B"/>
<path id="Vector_2" d="M109.931 114.843L11.1865 115.639C7.00429 115.671 3.58335 112.306 3.55054 108.127C3.53431 106.118 4.31684 104.185 5.72599 102.753C7.13514 101.321 9.05548 100.507 11.0646 100.491L109.812 99.6956C113.991 99.6627 117.408 103.027 117.445 107.211C117.474 111.393 114.116 114.81 109.931 114.843Z" fill="#0092D2"/>
<path id="Vector_3" d="M118.124 76.2112C118.169 82.0537 113.479 86.8274 107.636 86.8762L13.0311 87.6346C7.18857 87.6852 2.41482 82.9818 2.37076 77.1393L1.87482 15.7827C1.83076 9.94586 6.52294 5.17024 12.3654 5.12336L106.97 4.36117C112.813 4.31524 117.584 9.01305 117.628 14.8499L118.124 76.2112Z" fill="#EF962F"/>
<path id="Vector_4" d="M13.0311 87.6348C7.18857 87.6854 2.41482 82.9819 2.37076 77.1395L1.87482 15.7829C1.83076 9.94601 6.52294 5.17039 12.3654 5.12352L106.97 4.36133" fill="#F4A417"/>
</g>
</svg>
