<svg width="120" height="120" viewBox="0 0 120 120" fill="none" xmlns="http://www.w3.org/2000/svg">
<g id="business-card-svgrepo-com 2">
<path id="Vector" d="M11.2969 42.6797H108.598V104.73H11.2969V42.6797Z" fill="white"/>
<path id="Vector_2" d="M108.598 105.668H106.723V103.793H108.598V105.668ZM104.848 105.668H102.973V103.793H104.848V105.668ZM101.098 105.668H99.2227V103.793H101.098V105.668ZM97.3477 105.668H95.4727V103.793H97.3477V105.668ZM93.5977 105.668H91.7227V103.793H93.5977V105.668ZM89.8477 105.668H87.9727V103.793H89.8477V105.668ZM86.0977 105.668H84.2227V103.793H86.0977V105.668ZM82.3477 105.668H80.4727V103.793H82.3477V105.668ZM78.5977 105.668H76.7227V103.793H78.5977V105.668ZM74.8477 105.668H72.9727V103.793H74.8477V105.668ZM71.0977 105.668H69.2227V103.793H71.0977V105.668ZM67.3477 105.668H65.4727V103.793H67.3477V105.668ZM63.5977 105.668H61.7227V103.793H63.5977V105.668ZM59.8477 105.668H57.9727V103.793H59.8477V105.668ZM56.0977 105.668H54.2227V103.793H56.0977V105.668ZM52.3477 105.668H50.4727V103.793H52.3477V105.668ZM48.5977 105.668H46.7227V103.793H48.5977V105.668ZM44.8477 105.668H42.9727V103.793H44.8477V105.668ZM41.0977 105.668H39.2227V103.793H41.0977V105.668ZM37.3477 105.668H35.4727V103.793H37.3477V105.668ZM33.5977 105.668H31.7227V103.793H33.5977V105.668ZM29.8477 105.668H27.9727V103.793H29.8477V105.668ZM26.0977 105.668H24.2227V103.793H26.0977V105.668ZM22.3477 105.668H20.4727V103.793H22.3477V105.668ZM18.5977 105.668H16.7227V103.793H18.5977V105.668ZM14.8477 105.668H12.9727V103.793H14.8477V105.668ZM12.2344 104.531H10.3594V102.656H12.2344V104.531ZM109.535 102.902H107.66V101.027H109.535V102.902ZM12.2344 100.781H10.3594V98.9062H12.2344V100.781ZM109.535 99.1523H107.66V97.2773H109.535V99.1523ZM12.2344 97.0312H10.3594V95.1562H12.2344V97.0312ZM109.535 95.4023H107.66V93.5273H109.535V95.4023ZM12.2344 93.2812H10.3594V91.4062H12.2344V93.2812ZM109.535 91.6523H107.66V89.7773H109.535V91.6523ZM12.2344 89.5312H10.3594V87.6562H12.2344V89.5312ZM109.535 87.9023H107.66V86.0273H109.535V87.9023ZM12.2344 85.7812H10.3594V83.9062H12.2344V85.7812ZM109.535 84.1523H107.66V82.2773H109.535V84.1523ZM12.2344 82.0312H10.3594V80.1562H12.2344V82.0312ZM109.535 80.4023H107.66V78.5273H109.535V80.4023ZM12.2344 78.2812H10.3594V76.4062H12.2344V78.2812ZM109.535 76.6523H107.66V74.7773H109.535V76.6523ZM12.2344 74.5312H10.3594V72.6562H12.2344V74.5312ZM109.535 72.9023H107.66V71.0273H109.535V72.9023ZM12.2344 70.7812H10.3594V68.9062H12.2344V70.7812ZM109.535 69.1523H107.66V67.2773H109.535V69.1523ZM12.2344 67.0312H10.3594V65.1562H12.2344V67.0312ZM109.535 65.4023H107.66V63.5273H109.535V65.4023ZM12.2344 63.2812H10.3594V61.4062H12.2344V63.2812ZM109.535 61.6523H107.66V59.7773H109.535V61.6523ZM12.2344 59.5312H10.3594V57.6562H12.2344V59.5312ZM109.535 57.9023H107.66V56.0273H109.535V57.9023ZM12.2344 55.7812H10.3594V53.9062H12.2344V55.7812ZM109.535 54.1523H107.66V52.2773H109.535V54.1523ZM12.2344 52.0312H10.3594V50.1562H12.2344V52.0312ZM109.535 50.4023H107.66V48.5273H109.535V50.4023ZM12.2344 48.2812H10.3594V46.4062H12.2344V48.2812ZM109.535 46.6523H107.66V44.7773H109.535V46.6523ZM12.2344 44.5312H10.3594V41.7422H11.3203V42.6797H12.2344V44.5312ZM108.598 43.6172H106.945V41.7422H109.535V42.9023H108.598V43.6172ZM105.07 43.6172H103.195V41.7422H105.07V43.6172ZM101.32 43.6172H99.4453V41.7422H101.32V43.6172ZM97.5703 43.6172H95.6953V41.7422H97.5703V43.6172ZM93.8203 43.6172H91.9453V41.7422H93.8203V43.6172ZM90.0703 43.6172H88.1953V41.7422H90.0703V43.6172ZM86.3203 43.6172H84.4453V41.7422H86.3203V43.6172ZM82.5703 43.6172H80.6953V41.7422H82.5703V43.6172ZM78.8203 43.6172H76.9453V41.7422H78.8203V43.6172ZM75.0703 43.6172H73.1953V41.7422H75.0703V43.6172ZM71.3203 43.6172H69.4453V41.7422H71.3203V43.6172ZM67.5703 43.6172H65.6953V41.7422H67.5703V43.6172ZM63.8203 43.6172H61.9453V41.7422H63.8203V43.6172ZM60.0703 43.6172H58.1953V41.7422H60.0703V43.6172ZM56.3203 43.6172H54.4453V41.7422H56.3203V43.6172ZM52.5703 43.6172H50.6953V41.7422H52.5703V43.6172ZM48.8203 43.6172H46.9453V41.7422H48.8203V43.6172ZM45.0703 43.6172H43.1953V41.7422H45.0703V43.6172ZM41.3203 43.6172H39.4453V41.7422H41.3203V43.6172ZM37.5703 43.6172H35.6953V41.7422H37.5703V43.6172ZM33.8203 43.6172H31.9453V41.7422H33.8203V43.6172ZM30.0703 43.6172H28.1953V41.7422H30.0703V43.6172ZM26.3203 43.6172H24.4453V41.7422H26.3203V43.6172ZM22.5703 43.6172H20.6953V41.7422H22.5703V43.6172ZM18.8203 43.6172H16.9453V41.7422H18.8203V43.6172ZM15.0703 43.6172H13.1953V41.7422H15.0703V43.6172Z" fill="#0A0408"/>
<path id="Vector_3" d="M20.2266 51.3633H99.6563V96.0586H20.2266V51.3633Z" fill="#F4BE6F"/>
<path id="Vector_4" d="M11.2969 30.3281H108.598V42.7383H11.2969V30.3281Z" fill="#55B7A8"/>
<path id="Vector_5" d="M109.535 43.6758H10.3594V29.3906H109.535V43.6758ZM12.2344 41.8008H107.66V31.2656H12.2344V41.8008Z" fill="#0A0408"/>
<path id="Vector_6" d="M53.5898 12.5625H66.3047V36.4336H53.5898V12.5625Z" fill="#EBB866"/>
<path id="Vector_7" d="M67.2422 37.3711H52.6523V11.625H67.2422V37.3711ZM54.5273 35.4961H65.3672V13.5H54.5273V35.4961Z" fill="#0A0408"/>
<path id="Vector_8" d="M28.4531 65.6484C28.4531 67.6966 29.2668 69.6609 30.715 71.1092C32.1633 72.5575 34.1276 73.3711 36.1758 73.3711C38.224 73.3711 40.1882 72.5575 41.6365 71.1092C43.0848 69.6609 43.8984 67.6966 43.8984 65.6484C43.8984 64.6343 43.6987 63.6301 43.3106 62.6931C42.9225 61.7561 42.3536 60.9048 41.6365 60.1877C40.9194 59.4706 40.0681 58.9017 39.1311 58.5136C38.1942 58.1255 37.1899 57.9258 36.1758 57.9258C35.1616 57.9258 34.1574 58.1255 33.2204 58.5136C32.2835 58.9017 31.4322 59.4706 30.715 60.1877C29.9979 60.9048 29.4291 61.7561 29.041 62.6931C28.6529 63.6301 28.4531 64.6343 28.4531 65.6484Z" fill="white"/>
<path id="Vector_9" d="M36.1758 74.3086C31.3945 74.3086 27.5156 70.418 27.5156 65.6484C27.5156 60.8789 31.4063 56.9883 36.1758 56.9883C40.9453 56.9883 44.8359 60.8789 44.8359 65.6484C44.8359 70.418 40.957 74.3086 36.1758 74.3086ZM36.1758 58.8516C32.4258 58.8516 29.3906 61.8984 29.3906 65.6367C29.3906 69.375 32.4375 72.4219 36.1758 72.4219C39.9141 72.4219 42.9609 69.375 42.9609 65.6367C42.9609 61.8984 39.9258 58.8516 36.1758 58.8516Z" fill="#0A0408"/>
<path id="Vector_10" d="M49.0664 89.9883C49.0664 82.875 43.3008 77.1094 36.1875 77.1094C29.0742 77.1094 23.3086 82.875 23.3086 89.9883H49.0664Z" fill="white"/>
<path id="Vector_11" d="M50.0039 90.9258H22.3594V89.9883C22.3594 82.3711 28.5586 76.1719 36.1758 76.1719C43.793 76.1719 49.9922 82.3711 49.9922 89.9883V90.9258H50.0039ZM24.2695 89.0508H48.0938C47.6133 82.8984 42.457 78.0469 36.1875 78.0469C29.918 78.0469 24.75 82.8984 24.2695 89.0508ZM53.5898 77.6719H90.375V79.5469H53.5898V77.6719ZM53.5898 88.0313H84.2695V89.9063H53.5898V88.0313Z" fill="#0A0408"/>
<path id="Vector_12" d="M53.5898 60.082H90.375V67.8047H53.5898V60.082Z" fill="white"/>
<path id="Vector_13" d="M91.3125 68.7539H52.6523V59.1562H91.3125V68.7539ZM54.5273 66.8789H89.4375V61.0312H54.5273V66.8789Z" fill="#0A0408"/>
<path id="Vector_14" d="M57.6211 30.3047C57.6211 30.6171 57.6826 30.9264 57.8022 31.2151C57.9217 31.5037 58.097 31.7659 58.3179 31.9868C58.5388 32.2077 58.801 32.383 59.0896 32.5025C59.3783 32.6221 59.6876 32.6836 60 32.6836C60.3124 32.6836 60.6217 32.6221 60.9104 32.5025C61.199 32.383 61.4612 32.2077 61.6821 31.9868C61.903 31.7659 62.0783 31.5037 62.1978 31.2151C62.3174 30.9264 62.3789 30.6171 62.3789 30.3047C62.3789 29.6738 62.1283 29.0687 61.6821 28.6225C61.236 28.1764 60.6309 27.9258 60 27.9258C59.3691 27.9258 58.764 28.1764 58.3179 28.6225C57.8717 29.0687 57.6211 29.6738 57.6211 30.3047Z" fill="white"/>
<path id="Vector_15" d="M60 33.6328C58.1719 33.6328 56.6836 32.1445 56.6836 30.3164C56.6836 28.4883 58.1719 27 60 27C61.8281 27 63.3164 28.4883 63.3164 30.3164C63.3164 32.1445 61.8281 33.6328 60 33.6328ZM60 28.8633C59.2031 28.8633 58.5586 29.5078 58.5586 30.3047C58.5586 31.1016 59.2031 31.7578 60 31.7578C60.7969 31.7578 61.4414 31.1133 61.4414 30.3164C61.4414 29.5195 60.7969 28.8633 60 28.8633Z" fill="#0A0408"/>
<path id="Vector_16" d="M8.37891 101.812H14.2148V107.648H8.37891V101.812Z" fill="#DC504F"/>
<path id="Vector_17" d="M15.1406 108.586H7.44141V100.875H15.1523V108.586H15.1406ZM9.31641 106.711H13.2773V102.75H9.31641V106.711Z" fill="#0A0408"/>
<path id="Vector_18" d="M105.398 101.812H111.234V107.648H105.398V101.812Z" fill="#DC504F"/>
<path id="Vector_19" d="M112.16 108.586H104.449V100.875H112.16V108.586ZM106.336 106.711H110.297V102.75H106.336V106.711Z" fill="#0A0408"/>
</g>
</svg>
