<svg width="120" height="120" viewBox="0 0 120 120" fill="none" xmlns="http://www.w3.org/2000/svg">
<g id="social-network-social-media-svgrepo-com 1">
<g id="Group">
<path id="Vector" d="M85.9561 101.971L30.9585 59.0111L34.0364 55.0708L89.0398 98.0311L85.9561 101.971Z" fill="#434A54"/>
<path id="Vector_2" d="M89.9769 100.309L85.0186 99.69L95.0161 19.6895L99.9817 20.3099L89.9769 100.309Z" fill="#434A54"/>
<path id="Vector_3" d="M33.736 59.2128L31.2607 54.8695L96.2613 17.8271L98.7368 22.1723L33.736 59.2128Z" fill="#434A54"/>
</g>
<path id="Vector_4" d="M62.4985 60C62.4985 76.5673 49.0677 90 32.4985 90C15.9293 90 2.49854 76.5671 2.49854 60C2.49854 43.4308 15.9293 30 32.4985 30C49.0677 30 62.4985 43.4308 62.4985 60Z" fill="#ED5564"/>
<path id="Vector_5" d="M117.502 20.0008C117.502 31.0457 108.545 39.9995 97.4995 39.9995C86.4544 39.9995 77.4971 31.0457 77.4971 20.0008C77.4971 8.95379 86.4544 0 97.4995 0C108.545 0 117.502 8.95379 117.502 20.0008Z" fill="#A0D468"/>
<path id="Vector_6" d="M107.497 100.001C107.497 111.046 98.5468 120 87.5017 120C76.4496 120 67.4995 111.046 67.4995 100.001C67.4995 88.9528 76.4496 79.999 87.5017 79.999C98.5471 79.999 107.497 88.9528 107.497 100.001Z" fill="#EC87C0"/>
<path id="Vector_7" d="M54.722 80.1525V78.739C54.722 76.4502 53.2499 74.4177 51.0599 73.6925L50.895 73.6449C48.4889 73.0005 47.6743 72.378 46.603 71.9713C42.8055 70.5248 41.8166 69.4812 41.564 68.9903C41.5549 68.972 41.5476 68.9537 41.5403 68.9354L41.5073 64.5229L32.4983 64.4202L23.4878 64.5229L23.4566 68.9354C23.4493 68.9537 23.442 68.972 23.4327 68.9903C23.18 69.4812 22.1914 70.5248 18.3918 71.9713C17.3224 72.3778 16.5076 73.0005 14.1015 73.6449L13.9366 73.6925C11.7467 74.4177 10.2744 76.4502 10.2744 78.739V80.1525C15.7621 86.2024 23.6869 89.9999 32.4979 89.9999C41.3088 89.9999 49.2343 86.2024 54.722 80.1525Z" fill="#48CFAD"/>
<path id="Vector_8" d="M45.0009 55.9827C45.0009 64.1052 37.2556 71.5796 32.4985 71.5796C27.7414 71.5796 19.9961 64.1052 19.9961 55.9827C19.9961 47.8601 25.5936 42.5005 32.4985 42.5005C39.4034 42.5005 45.0009 47.8601 45.0009 55.9827Z" fill="#EAC6BB"/>
<path id="Vector_9" d="M112.367 33.3747V32.0581C112.367 30.5257 111.379 29.1669 109.914 28.6816L109.804 28.6504C108.2 28.2181 107.65 27.8027 106.933 27.5299C104.392 26.5612 103.732 25.8636 103.564 25.5341C103.557 25.5231 103.557 25.5102 103.549 25.4975L103.527 22.5458L97.4995 22.478L91.4718 22.5458L91.4498 25.4975C91.4425 25.5104 91.4425 25.5231 91.4353 25.5341C91.2666 25.8636 90.6 26.5612 88.0586 27.5299C87.3483 27.8027 86.799 28.2184 85.1948 28.6504L85.0778 28.6816C83.6127 29.1667 82.6313 30.5255 82.6313 32.0581V33.3747C86.2933 37.4414 91.5962 39.9993 97.4995 39.9993C103.403 39.9993 108.705 37.4414 112.367 33.3747Z" fill="#AC92EB"/>
<path id="Vector_10" d="M105.863 19.0211C105.863 24.4556 100.685 29.4561 97.4994 29.4561C94.3134 29.4561 89.1353 24.4556 89.1353 19.0211C89.1353 13.5864 92.8776 9.99951 97.4994 9.99951C102.121 9.99951 105.863 13.5864 105.863 19.0211Z" fill="#EAC6BB"/>
<path id="Vector_11" d="M102.37 113.375V112.061C102.37 110.526 101.381 109.168 99.9162 108.681L99.8064 108.651C98.195 108.219 97.6529 107.802 96.9354 107.531C94.394 106.56 93.7346 105.865 93.5662 105.535C93.559 105.524 93.5517 105.509 93.5442 105.498L93.5296 102.547L87.502 102.477L81.4743 102.547L81.4522 105.498C81.445 105.509 81.4377 105.524 81.4377 105.535C81.2618 105.865 80.6024 106.56 78.0612 107.531C77.3432 107.802 76.8014 108.22 75.19 108.651L75.0802 108.681C73.6152 109.168 72.6338 110.526 72.6338 112.061V113.375C76.2887 117.444 81.5986 120 87.502 120C93.4053 120 98.708 117.444 102.37 113.375Z" fill="#FFCE54"/>
<path id="Vector_12" d="M95.8659 99.0197C95.8659 104.454 90.6805 109.457 87.5018 109.457C84.3158 109.457 79.1377 104.454 79.1377 99.0197C79.1377 93.585 82.8803 90 87.5018 90C92.116 90 95.8659 93.5852 95.8659 99.0197Z" fill="#EAC6BB"/>
</g>
</svg>
