<svg width="120" height="120" viewBox="0 0 120 120" fill="none" xmlns="http://www.w3.org/2000/svg">
<g id="student-hat-svgrepo-com 1" clip-path="url(#clip0_197_2024)">
<path id="Vector" d="M60 120C93.1371 120 120 93.1371 120 60C120 26.8629 93.1371 0 60 0C26.8629 0 0 26.8629 0 60C0 93.1371 26.8629 120 60 120Z" fill="#88C5CC"/>
<path id="Vector_2" d="M106.875 52.9537C106.875 52.8028 106.28 52.5347 105.73 52.4259L62.9034 46.9125C61.3275 46.605 58.7288 46.5722 57.1528 46.8797L14.2762 52.3134C13.7391 52.4194 13.125 52.5534 13.125 52.724V53.204V53.4375V53.685V53.9175V54.1837V54.3187V54.3994V54.6647V54.734V54.7978V55.1437V55.2131V55.3125L37.5891 115.657C44.5144 118.449 52.0744 120 60 120C86.8069 120 109.5 102.417 117.196 78.1584L106.875 52.9537Z" fill="#80B9BF"/>
<path id="Vector_3" d="M30 51.5625V77.8125C31.0284 83.4375 44.1422 88.0312 60 88.0312C75.8578 88.0312 88.8272 83.4375 89.8556 77.8125H90V51.5625H30Z" fill="#2D424D"/>
<path id="Vector_4" d="M87.1877 51.5625V77.8125C86.1912 83.4375 73.728 87.6834 58.5405 87.9506C59.0243 87.9581 59.5108 87.9975 60.0002 87.9975C75.858 87.9975 88.9708 83.4375 90.0002 77.8125V51.5625H87.1877Z" fill="#253740"/>
<path id="Vector_5" d="M105 52.4999V53.6802L62.7366 48.3093C61.1606 48.0027 58.8778 48.0027 57.3028 48.3093L15.9375 53.5358V53.4374H13.125V54.1836V54.3186V54.734C13.125 54.9149 13.6791 55.0986 14.1637 55.2636L49.1681 65.7815C50.6878 66.3027 53.2266 66.4143 54.7856 66.0318L105.751 55.0143C106.284 54.8821 106.874 54.7302 106.874 54.5736V54.3186V54.1555V53.4374L105 52.4999Z" fill="#1E2C33"/>
<path id="Vector_6" d="M106.875 52.695C106.875 52.5441 106.28 52.4044 105.73 52.2975L62.9034 46.8478C61.3275 46.5403 58.7288 46.5403 57.1528 46.8478L14.2762 52.2975C13.7391 52.4025 13.125 52.5534 13.125 52.7231V53.4375C13.125 53.6184 13.6791 53.6381 14.1637 53.8041L49.1681 64.3219C50.6878 64.8431 53.2266 64.9556 54.7856 64.5731C54.7856 64.5731 106.874 53.595 106.874 53.4394L106.875 52.695Z" fill="#2D424D"/>
<path id="Vector_7" d="M73.5936 89.356C72.7882 89.356 72.1873 88.7035 72.1873 87.8963V61.9388L55.7782 56.4328C55.0132 56.1778 54.6551 55.351 54.9101 54.585C55.1651 53.8191 56.022 53.4047 56.7842 53.6625L74.1523 59.5022C74.7495 59.7019 75.9373 60.3085 75.9373 60.9366V88.1241C75.9373 88.9303 74.3989 89.356 73.5936 89.356Z" fill="#FFD464"/>
<path id="Vector_8" d="M77.8125 90.9374C77.8125 90.9374 77.8125 88.4165 77.8125 87.8962C77.8125 85.8806 76.0781 84.2446 74.0625 84.2446C72.0469 84.2446 70.3125 85.8796 70.3125 87.8962C70.3125 88.4165 70.3125 90.9374 70.3125 90.9374H77.8125Z" fill="#E16B5A"/>
<path id="Vector_9" d="M77.8125 90.9375H70.3125V99.375H77.8125V90.9375Z" fill="#FFD464"/>
<g id="Group">
<path id="Vector_10" d="M72.1875 90.9375H71.25V99.375H72.1875V90.9375Z" fill="#FFE399"/>
<path id="Vector_11" d="M74.0625 90.9375H73.125V99.375H74.0625V90.9375Z" fill="#FFE399"/>
<path id="Vector_12" d="M75.9375 90.9375H75V99.375H75.9375V90.9375Z" fill="#FFE399"/>
</g>
</g>
<defs>
<clipPath id="clip0_197_2024">
<rect width="120" height="120" fill="white"/>
</clipPath>
</defs>
</svg>
