<svg width="120" height="120" viewBox="0 0 120 120" fill="none" xmlns="http://www.w3.org/2000/svg">
<g id="civil-engineer-screew-svgrepo-com 1">
<path id="Vector" d="M24.8961 21.5336L21.502 24.9277L78.0351 81.4609L81.4292 78.0668L24.8961 21.5336Z" fill="#223244"/>
<path id="Vector_2" d="M12.2041 8.75391L8.72412 12.2339L17.0341 22.1999L21.4981 24.9239L24.8941 21.5279L22.1701 17.0699L12.2041 8.75391Z" fill="#B7B7B7"/>
<path id="Vector_3" d="M82.2781 70.4159C82.444 71.1937 82.848 71.9004 83.434 72.4381C84.0201 72.9757 84.759 73.3175 85.5481 73.4159C86.525 73.5037 87.4411 73.9279 88.1401 74.6159L108.168 94.6439C111.63 98.1059 112.218 103.296 109.854 107.058C109.41 107.762 108.871 108.402 108.252 108.96C104.418 112.434 98.2681 111.9 94.3921 108.018L74.5921 88.2179C73.9041 87.5189 73.48 86.6028 73.3921 85.6259C73.2937 84.8367 72.9519 84.0978 72.4143 83.5118C71.8767 82.9258 71.1699 82.5218 70.3921 82.3559C69.0929 82.1221 67.8923 81.5082 66.9421 80.5919L64.2661 77.9159L77.8441 64.3379L80.5201 67.0139C81.4259 67.9517 82.0371 69.1345 82.2781 70.4159Z" fill="white"/>
<path id="Vector_4" d="M82.2778 70.416C82.4437 71.1938 82.8477 71.9006 83.4337 72.4382C84.0197 72.9758 84.7586 73.3176 85.5478 73.416C86.5247 73.5039 87.4408 73.928 88.1398 74.616L108.168 94.644C111.63 98.106 112.218 103.296 109.854 107.058C106.026 109.458 100.704 108.678 97.2178 105.192L77.4178 85.392C76.7298 84.693 76.3057 83.7769 76.2178 82.8C76.1199 82.0113 75.7782 81.2728 75.2404 80.6877C74.7026 80.1025 73.9955 79.6999 73.2178 79.536C71.9178 79.3009 70.717 78.6848 69.7678 77.766L67.0918 75.09L77.8378 64.344L80.5138 67.02C81.4208 67.9555 82.034 69.136 82.2778 70.416Z" fill="#FFC861"/>
<path id="Vector_5" d="M89.8401 81.5242C89.2942 80.9782 88.409 80.9782 87.863 81.5242C87.3171 82.0701 87.3171 82.9553 87.863 83.5012L101.172 96.8104C101.718 97.3563 102.603 97.3564 103.149 96.8104C103.695 96.2644 103.695 95.3793 103.149 94.8333L89.8401 81.5242Z" fill="#BF9649"/>
<path id="Vector_6" d="M86.656 84.7073C86.1101 84.1613 85.2249 84.1613 84.679 84.7073C84.133 85.2532 84.133 86.1384 84.679 86.6843L101.022 103.027C101.568 103.573 102.453 103.573 102.999 103.027C103.545 102.481 103.545 101.596 102.999 101.05L86.656 84.7073Z" fill="#FFF4DF"/>
<path id="Vector_7" d="M80.5078 66.966L77.8318 64.29L64.2598 77.862L66.9358 80.538C67.8868 81.4532 69.087 82.0669 70.3858 82.302C71.1643 82.4663 71.8721 82.8698 72.41 83.4561C72.9479 84.0424 73.2891 84.7822 73.3858 85.572C73.4751 86.5485 73.899 87.4642 74.5858 88.164L94.3858 107.964C98.2678 111.846 104.418 112.374 108.246 108.906C112.338 105.204 112.26 98.706 108.162 94.59L88.1398 74.592C87.4399 73.9053 86.5242 73.4814 85.5478 73.392C84.758 73.2953 84.0182 72.9542 83.4318 72.4162C82.8455 71.8783 82.442 71.1706 82.2778 70.392C82.0365 69.1012 81.421 67.9098 80.5078 66.966Z" stroke="#2F4360" stroke-width="2" stroke-linecap="round" stroke-linejoin="round"/>
<path id="Vector_8" d="M73.9678 56.082L35.0098 95.0399C35.3556 97.4945 34.9208 99.9957 33.7671 102.19C32.6134 104.384 30.7992 106.159 28.581 107.266C26.3628 108.372 23.8529 108.753 21.4062 108.355C18.9596 107.957 16.7001 106.799 14.9474 105.046C13.1946 103.294 12.0372 101.034 11.6389 98.5876C11.2407 96.1409 11.6216 93.631 12.728 91.4128C13.8344 89.1946 15.6101 87.3804 17.8041 86.2267C19.9981 85.073 22.4993 84.6382 24.9538 84.984L63.9118 46.026C75.7318 34.2059 76.0318 32.826 75.5578 31.572C74.4862 28.7996 74.2761 25.7684 74.9551 22.8747C75.6341 19.9811 77.1706 17.3597 79.3635 15.3534C81.5565 13.3471 84.3039 12.0493 87.2464 11.6298C90.1889 11.2102 93.1895 11.6885 95.8558 13.002C96.0898 13.116 96.3358 13.236 96.5638 13.368L87.2279 22.716C86.5199 23.4363 86.1232 24.4059 86.1232 25.416C86.1232 26.426 86.5199 27.3956 87.2279 28.116L91.8598 32.748C92.3471 33.2304 92.9545 33.5738 93.6191 33.7426C94.2838 33.9114 94.9814 33.8994 95.6398 33.708C96.2617 33.5325 96.8279 33.1998 97.2838 32.742L106.62 23.43C107.312 24.6598 107.821 25.9836 108.132 27.36C108.168 27.528 108.204 27.696 108.228 27.87C108.732 30.4577 108.533 33.1332 107.651 35.618C106.77 38.1027 105.239 40.3058 103.217 41.9979C101.196 43.69 98.7574 44.8092 96.1563 45.239C93.5552 45.6689 90.8864 45.3936 88.4278 44.442C87.1918 43.974 85.7999 44.262 73.9678 56.082Z" fill="white"/>
<path id="Vector_9" d="M73.9679 56.0821L35.0099 95.0401C35.3299 97.3123 34.982 99.6285 34.0085 101.706C33.035 103.784 31.4781 105.534 29.5274 106.743C27.5768 107.951 25.3167 108.566 23.0227 108.512C20.7287 108.458 18.4999 107.738 16.6079 106.44C15.3019 104.552 14.5747 102.324 14.5152 100.029C14.4557 97.7338 15.0666 95.4712 16.2731 93.5179C17.4796 91.5646 19.2293 90.0054 21.3082 89.0311C23.387 88.0568 25.7048 87.7096 27.9779 88.0321L66.9359 49.0741C78.7559 37.2541 79.0559 35.8741 78.5819 34.6201C77.6328 32.1621 77.3592 29.4947 77.7897 26.8952C78.2201 24.2957 79.3389 21.8589 81.0297 19.838C82.7205 17.8171 84.9217 16.2859 87.4044 15.4035C89.8872 14.5211 92.561 14.3196 95.1479 14.8201L87.2279 22.7401C86.52 23.4605 86.1233 24.4301 86.1233 25.4401C86.1233 26.4501 86.52 27.4197 87.2279 28.1401L94.8839 35.7961C95.3712 36.2786 95.9786 36.622 96.6432 36.7908C97.3078 36.9596 98.0055 36.9476 98.6639 36.7561C99.2858 36.5806 99.852 36.248 100.308 35.7901L108.228 27.8701C108.732 30.4579 108.533 33.1334 107.651 35.6181C106.77 38.1029 105.239 40.3059 103.217 41.998C101.196 43.6901 98.7574 44.8094 96.1563 45.2392C93.5553 45.6691 90.8865 45.3938 88.4279 44.4421C87.1919 43.9741 85.7999 44.2621 73.9679 56.0821Z" fill="#FFC861"/>
<path id="Vector_10" d="M27.834 92.166L29.49 98.352L24.96 102.882L18.78 101.22L17.124 95.04L21.648 90.51L27.834 92.166Z" fill="#2F4360"/>
<path id="Vector_11" d="M88.422 44.4421C91.2571 45.5336 94.3597 45.7245 97.3072 44.9887C100.255 44.253 102.904 42.6264 104.893 40.3305C106.883 38.0347 108.116 35.1813 108.425 32.1592C108.734 29.137 108.104 26.0931 106.62 23.4421L97.284 32.7721C96.5644 33.4815 95.5945 33.8792 94.584 33.8792C93.5735 33.8792 92.6036 33.4815 91.884 32.7721L87.258 28.1461C86.5486 27.4265 86.1509 26.4566 86.1509 25.4461C86.1509 24.4356 86.5486 23.4657 87.258 22.7461L96.564 13.3801C93.913 11.8964 90.8691 11.2661 87.8469 11.5752C84.8248 11.8842 81.9714 13.1175 79.6755 15.107C77.3797 17.0965 75.7531 19.7454 75.0174 22.6929C74.2816 25.6404 74.4725 28.743 75.564 31.5781C76.038 32.8141 75.744 34.2121 63.924 46.0321L24.954 84.9901C22.4964 84.642 19.9916 85.0757 17.7941 86.2296C15.5965 87.3836 13.8175 89.1994 12.7088 91.4202C11.6001 93.6409 11.2179 96.1541 11.6163 98.604C12.0146 101.054 13.1733 103.317 14.9284 105.072C16.6835 106.827 18.9462 107.986 21.3961 108.384C23.846 108.782 26.3592 108.4 28.5799 107.291C30.8007 106.183 32.6165 104.404 33.7704 102.206C34.9244 100.008 35.358 97.5037 35.01 95.0461L73.968 56.0881C85.8 44.2681 87.186 43.9741 88.422 44.4421Z" stroke="#2F4360" stroke-width="2" stroke-linecap="round" stroke-linejoin="round"/>
</g>
</svg>
