<svg width="120" height="120" viewBox="0 0 120 120" fill="none" xmlns="http://www.w3.org/2000/svg">
<g id="justice-equality-svgrepo-com 1">
<path id="Vector" d="M45.6501 71.1416L25.1003 39.256L4.55006 71.1416L2.35303 67.2528L25.1003 31.9531L47.8476 67.2528L45.6501 71.1416Z" fill="#EAEAEA"/>
<path id="Vector_2" d="M39.9352 67.2527L29.3857 77.8021H37.2978C43.1 77.8021 47.8472 73.0549 47.8472 67.2527H39.9352Z" fill="#9E52B6"/>
<path id="Vector_3" d="M2.35303 67.2527H39.9355C39.9355 73.0549 35.1883 77.8021 29.3861 77.8021H12.9025C7.10029 77.8021 2.35303 73.0549 2.35303 67.2527Z" fill="#B175C8"/>
<path id="Vector_4" d="M115.45 71.1416L94.8996 39.256L74.3498 71.1416L72.1523 67.2528L94.8996 31.9531L117.647 67.2528L115.45 71.1416Z" fill="#EAEAEA"/>
<path id="Vector_5" d="M109.735 67.2527L99.1855 77.8021H107.098C112.9 77.8021 117.647 73.0549 117.647 67.2527H109.735Z" fill="#9E52B6"/>
<path id="Vector_6" d="M72.1523 67.2527H109.735C109.735 73.0549 104.988 77.8021 99.1854 77.8021H82.7018C76.8996 77.8021 72.1523 73.0549 72.1523 67.2527Z" fill="#B175C8"/>
<path id="Vector_7" d="M89.554 25.8619L81.8213 24.0237L89.3405 35.6044H97.2525C97.2525 31.2527 93.7896 26.8695 89.554 25.8619Z" fill="#BFBFBF"/>
<path id="Vector_8" d="M81.8213 24.0236L63.9558 19.78L59.9998 27.6923L56.0438 19.7803L30.4456 25.8621C26.21 26.8696 22.7471 31.2529 22.7471 35.6046H89.3405C89.3405 30.8702 86.1228 26.1098 81.8213 24.0236Z" fill="#D5D5D5"/>
<path id="Vector_9" d="M60 7.91211C57.8151 7.91211 56.0439 9.68328 56.0439 11.8681V90.9891H63.956V11.8681C63.956 9.68352 62.1848 7.91211 60 7.91211Z" fill="#D6BAED"/>
<path id="Vector_10" d="M66.5932 83.0771L73.1867 104.176L62.6372 112.088V83.0771H66.5932Z" fill="#BFBFBF"/>
<path id="Vector_11" d="M62.6373 83.0771L65.2745 104.176L56.0438 109.451L46.813 104.176L53.4064 83.0771H62.6373Z" fill="#D5D5D5"/>
<path id="Vector_12" d="M73.1869 104.176H65.2749V117.363L81.0992 112.088C81.099 107.718 77.5571 104.176 73.1869 104.176Z" fill="#C397DB"/>
<path id="Vector_13" d="M73.1867 112.088L56.0438 117.363L38.9009 112.088C38.9009 107.718 42.4428 104.176 46.8129 104.176H65.2744C69.6446 104.176 73.1867 107.718 73.1867 112.088Z" fill="#D6BAED"/>
<path id="Vector_14" d="M91.6484 112.088H83.7363V120H91.6484C93.832 120 95.6044 118.228 95.6044 116.044C95.6044 113.86 93.832 112.088 91.6484 112.088Z" fill="#9E52B6"/>
<path id="Vector_15" d="M83.7362 112.088H28.3515C26.1679 112.088 24.3955 113.86 24.3955 116.044C24.3955 118.228 26.1679 120 28.3515 120H83.7362C85.9199 120 87.6922 118.228 87.6922 116.044C87.6922 113.86 85.9199 112.088 83.7362 112.088Z" fill="#B175C8"/>
<g id="Group">
<path id="Vector_16" d="M60 7.91203C62.1848 7.91203 63.956 6.14086 63.956 3.95602C63.956 1.77117 62.1848 0 60 0C57.8151 0 56.0439 1.77117 56.0439 3.95602C56.0439 6.14086 57.8151 7.91203 60 7.91203Z" fill="#C397DB"/>
<path id="Vector_17" d="M67.2526 85.0549H52.7472C51.6547 85.0549 50.769 84.1692 50.769 83.0768C50.769 81.9843 51.6547 81.0986 52.7472 81.0986H67.2526C68.3451 81.0986 69.2308 81.9843 69.2308 83.0768C69.2308 84.1692 68.3451 85.0549 67.2526 85.0549Z" fill="#C397DB"/>
</g>
</g>
</svg>
