<svg width="120" height="120" viewBox="0 0 120 120" fill="none" xmlns="http://www.w3.org/2000/svg">
<g id="Group 17">
<g id="_2730818562880">
<path id="Vector" d="M103.506 35.8328C103.12 35.3092 102.684 34.837 102.209 34.422C102.515 33.4506 102.649 32.4143 102.577 31.3527C102.452 29.5006 101.764 27.8049 100.666 26.4565C100.891 25.1037 100.788 23.6867 100.336 22.32C101.191 19.3518 100.393 16.0747 98.1078 13.8241C96.4546 12.1962 94.2758 11.3551 92.0788 11.3551C91.2386 11.3551 90.3959 11.478 89.5788 11.727C88.7147 11.4563 87.8328 11.3235 86.9619 11.3235C86.4482 11.3235 85.9382 11.3697 85.4378 11.4609C84.0725 10.3836 82.3667 9.72207 80.5128 9.62557C80.3682 9.61804 80.2235 9.61428 80.0798 9.61428C79.1695 9.61428 78.2843 9.76369 77.4494 10.0417C77.0271 9.57223 76.5482 9.14395 76.0183 8.76546C75.0336 5.14039 71.7967 2.56092 68.0222 2.43209C67.9235 2.42856 67.8248 2.427 67.7265 2.427C64.7542 2.427 62.0432 3.95865 60.4899 6.38916C58.7555 7.01003 57.3002 8.16142 56.2955 9.63266C55.5859 9.79865 54.8876 10.057 54.217 10.41C52.6645 11.2276 51.4569 12.4775 50.6769 13.9503C50.3697 13.9169 50.0607 13.9003 49.7512 13.9003C48.0731 13.9 46.3871 14.3903 44.9188 15.3903C43.5359 16.3323 42.5027 17.6198 41.8738 19.0712C35.2994 19.2661 28.9767 19.6679 22.9849 20.2721C15.3532 20.5526 9.23096 26.8485 9.23096 34.5475V96.1996V100.755C9.23096 107.294 13.4598 112.864 19.3266 114.873C20.8355 117.341 23.555 118.988 26.6595 118.988H44.6802C47.3243 118.988 49.6888 117.794 51.2643 115.914H55.3932C56.0924 115.914 56.7719 115.831 57.4226 115.673H82.8707C87.6144 115.673 91.4599 111.828 91.4599 107.084V104.807V92.1476V89.8702V70.8C93.8098 70.447 95.9814 69.1254 97.3617 67.0284C98.5181 65.2716 98.9557 63.2205 98.7123 61.2504C100.174 60.4474 101.405 59.2198 102.198 57.6543C102.542 56.9761 102.79 56.2712 102.944 55.5567C104.394 54.5306 105.518 53.0629 106.111 51.3274C108.605 49.6813 110.118 46.8088 109.96 43.7176C109.766 39.9488 107.143 36.758 103.506 35.8328Z" fill="#DDCAC6"/>
<g id="Group">
<path id="Vector_2" d="M99.1046 47.2749C99.1046 47.2749 97.2148 46.4566 97.4576 45.4604C97.7004 44.4641 102.498 42.8833 102.498 42.8833C102.498 42.8833 98.1254 41.9145 97.5138 41.216C96.9023 40.5174 97.5752 39.7361 97.5752 39.7361C97.5752 39.7361 94.7257 40.2514 93.6787 39.1881C92.6316 38.125 94.3098 36.1277 94.3098 36.1277C94.3098 36.1277 88.9636 38.3959 88.4053 38.3273C87.8469 38.2589 88.4027 37.4827 88.4027 37.4827L85.0623 38.2602C87.1451 34.2892 90.7013 32.0243 95.0152 30.6371C95.0152 30.6371 91.1935 29.8585 90.9213 28.082C90.6488 26.3056 93.2164 23.796 93.2164 23.796C93.2164 23.796 92.0114 23.7325 91.6962 22.684C91.3808 21.6355 93.1931 18.671 93.1931 18.671C93.1931 18.671 90.2566 20.5286 89.2035 20.2296C88.1501 19.9306 88.0683 18.7267 88.0683 18.7267C88.0683 18.7267 85.5986 21.3325 83.8181 21.0875C82.0377 20.8425 81.2001 17.0335 81.2001 17.0335C79.919 21.2387 77.7964 24.7394 74.0751 26.9025C73.9764 26.8967 73.8772 26.891 73.7785 26.8855L74.4573 23.7507C74.4573 23.7507 73.6897 24.3184 73.6127 23.7613C73.5357 23.204 75.7211 17.8235 75.7211 17.8235C75.7211 17.8235 73.7499 19.5322 72.6709 18.5016C71.5916 17.4713 72.0629 14.6141 72.0629 14.6141C72.0629 14.6141 71.292 15.2991 70.5841 14.6982C69.8763 14.0975 68.8402 9.73999 68.8402 9.73999C68.8402 9.73999 67.3333 14.5616 66.3411 14.8199C65.3486 15.0782 64.5015 13.201 64.5015 13.201C64.5015 13.201 64.4639 18.7954 63.1408 19.1289C61.8176 19.4625 59.3716 16.7814 59.3716 16.7814C59.3716 16.7814 61.2733 24.4156 60.7275 26.3483C60.2047 26.3357 59.6857 26.3286 59.1646 26.3184C57.7671 25.3053 56.1901 23.0183 56.1901 23.0183C56.1901 23.0183 55.6788 24.3279 54.7076 24.1575C53.7361 23.9871 50.8651 21.2161 50.8651 21.2161C50.8651 21.2161 52.1628 24.3496 52.6569 26.2493C42.9935 26.2423 33.6302 26.6566 24.6275 27.5783C21.4819 27.5783 18.9316 30.1285 18.9316 33.2742V94.9262V99.4816C18.9316 102.977 21.7654 105.811 25.261 105.811H27.771V109.125H45.7916V106.052H56.5046V105.811H83.9824V103.533V90.8744V88.5969V60.8205C84.0769 60.9181 84.1338 60.9792 84.1338 60.9792C84.1338 60.9792 84.1025 59.5445 84.9204 59.1866C85.738 58.8285 91.3005 61.033 91.3005 61.033C91.3005 61.033 88.4857 58.205 88.3004 57.2364C88.1152 56.2678 89.4166 55.7364 89.4166 55.7364C89.4166 55.7364 85.439 53.0872 85.5813 51.6231C85.7236 50.1587 95.6037 52.4593 95.6037 52.4593C95.6037 52.4593 92.8852 50.0549 93.1984 48.7269C93.5114 47.3986 99.1046 47.2749 99.1046 47.2749Z" fill="white"/>
<path id="Vector_3" d="M68.8399 9.74017C68.8399 9.74017 69.8759 14.0976 70.5838 14.6984C70.7996 14.8816 71.0214 14.9451 71.2252 14.9451C71.69 14.9451 72.0625 14.6142 72.0625 14.6142C72.0625 14.6142 71.5913 17.4715 72.6706 18.5018C72.9204 18.7406 73.2184 18.8323 73.5285 18.8323C74.5573 18.8323 75.7208 17.8236 75.7208 17.8236C75.7208 17.8236 73.5353 23.2041 73.6124 23.7615C73.6378 23.945 73.7378 24.0063 73.8609 24.0063C74.1117 24.0063 74.4572 23.7508 74.4572 23.7508L73.7781 26.8856C73.8769 26.8912 73.976 26.8972 74.0747 26.9027C77.7961 24.7396 79.9187 21.2389 81.1998 17.0337C81.1998 17.0337 82.0373 20.8427 83.8178 21.0877C83.8977 21.0988 83.9791 21.1041 84.0615 21.1041C85.8151 21.1041 88.0679 18.7269 88.0679 18.7269C88.0679 18.7269 88.1498 19.9308 89.2032 20.2296C89.2817 20.2519 89.3705 20.2623 89.4679 20.2623C90.6777 20.2623 93.1926 18.6711 93.1926 18.6711C93.1926 18.6711 91.3805 21.6357 91.6959 22.6842C92.0111 23.7327 93.216 23.7962 93.216 23.7962C93.216 23.7962 90.6485 26.3057 90.921 28.0822C91.1932 29.8587 95.0148 30.6373 95.0148 30.6373C90.701 32.0244 87.1447 34.2892 85.0619 38.2604L88.4024 37.4829C88.4024 37.4829 87.8466 38.2593 88.405 38.3275C88.4132 38.3286 88.4227 38.329 88.4331 38.329C89.1213 38.329 94.3094 36.1278 94.3094 36.1278C94.3094 36.1278 92.6313 38.1252 93.6784 39.1885C94.21 39.7283 95.2065 39.8611 96.0589 39.8611C96.8845 39.8611 97.5748 39.7363 97.5748 39.7363C97.5748 39.7363 96.9019 40.5176 97.5135 41.2162C98.1251 41.9147 102.498 42.8835 102.498 42.8835C102.498 42.8835 97.7001 44.4645 97.4573 45.4605C97.2145 46.4568 99.1043 47.2748 99.1043 47.2748C99.1043 47.2748 93.5111 47.3988 93.1981 48.727C92.8849 50.0553 95.6036 52.4595 95.6036 52.4595C95.6036 52.4595 89.9179 51.1356 87.1106 51.1356C86.2173 51.1356 85.6153 51.2698 85.581 51.623C85.4387 53.0874 89.4163 55.7366 89.4163 55.7366C89.4163 55.7366 88.1148 56.268 88.3001 57.2368C88.4854 58.2052 91.3001 61.0332 91.3001 61.0332C91.3001 61.0332 86.5416 59.1474 85.1801 59.1474C85.0695 59.1474 84.9814 59.1598 84.9201 59.1868C84.1022 59.5445 84.1334 60.9792 84.1334 60.9792C84.1334 60.9792 84.0765 60.9183 83.982 60.8207V88.5971V90.8746V103.534V105.811H56.5043V106.052H45.7915V109.125H27.7706V105.811H25.2607C21.7651 105.811 18.9313 102.977 18.9313 99.4818V94.9264V33.2743C18.9313 30.1287 21.4815 27.5784 24.6274 27.5784C33.554 26.6645 42.8344 26.2495 52.4115 26.2495C52.4927 26.2495 52.5751 26.2495 52.6565 26.2495C52.1625 24.3498 50.8648 21.2163 50.8648 21.2163C50.8648 21.2163 53.7358 23.9872 54.7072 24.1577C54.7665 24.1681 54.8241 24.1729 54.8801 24.1729C55.7389 24.1729 56.1897 23.0184 56.1897 23.0184C56.1897 23.0184 57.767 25.3055 59.1641 26.3186C59.6853 26.3288 60.2042 26.3359 60.7272 26.3485C61.273 24.4157 59.3713 16.7816 59.3713 16.7816C59.3713 16.7816 61.539 19.1579 62.8972 19.1579C62.9815 19.1579 63.0629 19.1488 63.1404 19.1291C64.4636 18.7955 64.5012 13.2012 64.5012 13.2012C64.5012 13.2012 65.2427 14.8444 66.1511 14.8444C66.2135 14.8444 66.2768 14.8367 66.3407 14.8201C67.333 14.5618 68.8399 9.74017 68.8399 9.74017ZM68.8379 1.15381C65.8655 1.15381 63.1544 2.68546 61.6012 5.11597C59.8668 5.73682 58.4115 6.88822 57.4069 8.35947C56.6971 8.52546 55.999 8.78376 55.3283 9.1368C53.7759 9.95442 52.5682 11.2043 51.7882 12.6771C51.4808 12.6437 51.1718 12.6273 50.8624 12.6273C49.1844 12.6271 47.4983 13.1173 46.0299 14.1173C44.647 15.0591 43.614 16.3469 42.985 17.798C36.4108 17.9932 30.0878 18.3947 24.0962 18.9989C16.4645 19.2794 10.3423 25.5753 10.3423 33.2743V94.9264V99.4818C10.3423 106.021 14.5712 111.591 20.4377 113.6C21.9468 116.068 24.6664 117.715 27.7706 117.715H45.7915C48.4354 117.715 50.8002 116.52 52.3757 114.641H56.5043C57.2035 114.641 57.883 114.558 58.5337 114.4H83.982C88.7257 114.4 92.5713 110.555 92.5713 105.811V103.534L92.5711 90.8746L92.5713 88.5971V69.5268C94.921 69.1738 97.0925 67.8522 98.473 65.7552C99.6295 63.9987 100.067 61.9473 99.8234 59.9772C101.285 59.1742 102.516 57.9469 103.309 56.3811C103.653 55.7029 103.901 54.998 104.056 54.2835C105.505 53.2574 106.63 51.7899 107.223 50.0542C109.716 48.4081 111.23 45.5356 111.071 42.4444C110.877 38.6759 108.254 35.4848 104.617 34.5599C104.231 34.036 103.795 33.5641 103.32 33.1491C103.627 32.1774 103.76 31.1413 103.688 30.0795C103.564 28.2274 102.876 26.5317 101.778 25.1833C102.002 23.8305 101.899 22.4137 101.448 21.047C102.302 18.0786 101.504 14.8015 99.2189 12.5512C97.566 10.923 95.3869 10.0821 93.1899 10.0819C92.3499 10.0819 91.5073 10.2047 90.6901 10.4537C89.826 10.1833 88.944 10.0503 88.073 10.0503C87.5593 10.0503 87.0495 10.0965 86.5491 10.1877C85.1839 9.11045 83.4778 8.44888 81.6241 8.35237C81.4794 8.34485 81.3348 8.34131 81.1912 8.34131C80.2808 8.34131 79.3955 8.49048 78.5608 8.76849C78.1383 8.29904 77.6595 7.87073 77.1294 7.49225C76.1447 3.8674 72.9081 1.28773 69.1336 1.1589C69.0346 1.15536 68.9361 1.15381 68.8379 1.15381Z" fill="white"/>
</g>
<g id="Group_2">
<g id="Group_3">
<path id="Vector_4" d="M84.9204 59.1871C85.7383 58.829 91.3007 61.0335 91.3007 61.0335C91.3007 61.0335 88.486 58.2057 88.3007 57.2369C88.1154 56.2684 89.4169 55.7369 89.4169 55.7369C89.4169 55.7369 85.4392 53.0877 85.5816 51.6236C85.7239 50.1592 95.6039 52.4598 95.6039 52.4598C95.6039 52.4598 92.8855 50.0556 93.1987 48.7274C93.5116 47.3991 99.1048 47.2752 99.1048 47.2752C99.1048 47.2752 97.2148 46.4571 97.4579 45.4609C97.7007 44.4649 102.499 42.8838 102.499 42.8838C102.499 42.8838 98.1259 41.915 97.5141 41.2165C96.9023 40.518 97.5754 39.7366 97.5754 39.7366C97.5754 39.7366 94.7259 40.2517 93.6788 39.1888C92.6318 38.1257 94.31 36.1282 94.31 36.1282C94.31 36.1282 88.9638 38.3964 88.4056 38.328C87.8472 38.2594 88.4029 37.4832 88.4029 37.4832L85.0623 38.2608C87.1453 34.2897 90.7015 32.025 95.0154 30.6377C95.0154 30.6377 91.1938 29.859 90.9215 28.0826C90.6491 26.3061 93.2166 23.7966 93.2166 23.7966C93.2166 23.7966 92.0116 23.733 91.6965 22.6846C91.381 21.6361 93.1933 18.6715 93.1933 18.6715C93.1933 18.6715 90.2569 20.5292 89.2037 20.2301C88.1506 19.9311 88.0685 18.7273 88.0685 18.7273C88.0685 18.7273 85.5988 21.3331 83.8184 21.088C82.0381 20.843 81.2004 17.034 81.2004 17.034C79.8799 21.3687 77.6703 24.9595 73.7316 27.1036L74.4576 23.7512C74.4576 23.7512 73.69 24.3189 73.6129 23.7618C73.5359 23.2045 75.7216 17.824 75.7216 17.824C75.7216 17.824 73.7502 19.5327 72.6709 18.5024C71.5919 17.4718 72.0631 14.6146 72.0631 14.6146C72.0631 14.6146 71.2922 15.2996 70.5844 14.6987C69.8765 14.098 68.8404 9.74072 68.8404 9.74072C68.8404 9.74072 67.3336 14.5621 66.3413 14.8204C65.3488 15.0787 64.5018 13.2016 64.5018 13.2016C64.5018 13.2016 64.4642 18.7959 63.141 19.1294C61.8176 19.463 59.3718 16.7819 59.3718 16.7819C59.3718 16.7819 61.8245 26.6252 60.3625 26.7902C58.9006 26.955 56.1905 23.019 56.1905 23.019C56.1905 23.019 55.679 24.3284 54.7078 24.158C53.7364 23.9876 50.8654 21.2169 50.8654 21.2169C50.8654 21.2169 53.1554 26.7448 52.8101 27.5679C52.4648 28.3911 51.0298 28.3818 51.0298 28.3818C51.0298 28.3818 54.058 31.1071 53.8858 32.3493C53.7133 33.5914 50.6157 32.8595 50.6157 32.8595C53.2961 34.9168 55.4639 37.1685 56.8647 39.711C55.2477 40.9438 53.3459 41.381 51.2009 41.137C53.2884 41.8737 54.7262 42.9465 55.4699 44.3781C58.2629 44.1999 63.8451 45.4452 65.5067 47.0653C67.1682 48.6856 68.2063 53.9912 68.0713 56.7867C69.5142 57.5081 70.6089 58.9295 71.3779 61.0052C71.1008 58.864 71.5087 56.9561 72.7163 55.3199C75.28 56.6816 77.5649 58.8144 79.6632 61.4627C79.6632 61.4627 78.8837 58.3766 80.1231 58.1851C81.3624 57.9937 84.134 60.9798 84.134 60.9798C84.134 60.9798 84.1028 59.545 84.9204 59.1871Z" fill="#FFC15B"/>
<path id="Vector_5" d="M58.2139 54.5596L57.8799 54.1681C69.3963 44.3595 80.1179 33.4719 89.7455 21.8074L90.1423 22.1354C80.4957 33.8229 69.7536 44.732 58.2139 54.5596Z" fill="#DB9A3D"/>
<path id="Vector_6" d="M65.8309 47.3185C63.7273 33.3472 68.1489 15.3401 68.1939 15.1594L68.6943 15.2847C68.6489 15.4638 64.2521 33.3731 66.3406 47.2419L65.8309 47.3185Z" fill="#DB9A3D"/>
<path id="Vector_7" d="M66.0586 47.5365L66.1128 47.0243C66.2833 47.0425 83.2951 48.7725 97.2878 43.4736L97.4697 43.955C83.3606 49.2986 66.2295 47.5547 66.0586 47.5365Z" fill="#DB9A3D"/>
<path id="Vector_8" d="M65.6974 47.2548C60.0905 39.9438 55.9364 27.9234 55.895 27.803L56.382 27.6353C56.4231 27.7557 60.5511 39.6982 66.1064 46.9416L65.6974 47.2548Z" fill="#DB9A3D"/>
<path id="Vector_9" d="M78.6556 54.8071C75.2005 53.7588 70.5885 51.6634 65.9141 47.4722L66.2576 47.0884C75.4473 55.3272 84.3597 55.3414 84.448 55.341L84.4531 55.8556C84.4079 55.8567 82.11 55.8553 78.6556 54.8071Z" fill="#DB9A3D"/>
<path id="Vector_10" d="M81.3266 31.7611C78.9802 27.3202 80.9975 22.7299 81.0843 22.5369L81.5542 22.748C81.5343 22.7932 79.5555 27.3069 81.7824 31.521L81.3266 31.7611Z" fill="#DB9A3D"/>
<path id="Vector_11" d="M78.4312 35.1863L78.5628 34.6879C82.9017 35.8287 86.5244 33.4624 86.5604 33.4382L86.8466 33.8672C86.6919 33.9701 83.0013 36.3873 78.4312 35.1863Z" fill="#DB9A3D"/>
<path id="Vector_12" d="M65.8111 34.1861L65.5298 33.7545C70.3397 30.611 71.2963 26.2912 71.3054 26.2476L71.8098 26.3545C71.7704 26.5395 70.7981 30.9266 65.8111 34.1861Z" fill="#DB9A3D"/>
<path id="Vector_13" d="M84.188 46.7962C84.9129 43.1674 88.9417 40.719 89.113 40.6167L89.3775 41.0589C89.3374 41.0824 85.373 43.4941 84.6928 46.8976L84.188 46.7962Z" fill="#DB9A3D"/>
<path id="Vector_14" d="M73.1795 47.5955C72.8362 43.1552 78.9398 38.757 79.1999 38.5718L79.4987 38.9919C79.4374 39.0348 73.3718 43.4062 73.6937 47.5552L73.1795 47.5955Z" fill="#DB9A3D"/>
<path id="Vector_15" d="M82.4773 51.9885C79.7553 49.409 78.821 47.575 78.7827 47.498L79.2429 47.2676C79.2524 47.2853 80.1833 49.1049 82.8316 51.6153L82.4773 51.9885Z" fill="#DB9A3D"/>
<path id="Vector_16" d="M59.3784 35.5965L59.0864 35.1729C62.5207 32.8035 63.2837 27.8887 63.291 27.8391L63.8007 27.9152C63.7699 28.1253 62.9953 33.1016 59.3784 35.5965Z" fill="#DB9A3D"/>
<path id="Vector_17" d="M59.8917 42.8551C59.0207 42.5906 58.3733 42.259 58.3188 42.2311L58.5559 41.7732C58.582 41.786 61.1998 43.1242 62.9187 42.5076L63.0927 42.9921C62.0807 43.356 60.8505 43.1459 59.8917 42.8551Z" fill="#DB9A3D"/>
</g>
<g id="Group_4">
<path id="Vector_18" d="M83.9828 103.534H26.0694C23.5176 103.534 21.4487 101.465 21.4487 98.9132V95.4955C21.4487 92.9437 23.5174 90.8749 26.0694 90.8749C44.1447 89.5216 63.589 89.6754 83.9828 90.8749V103.534Z" fill="white"/>
<path id="Vector_19" d="M25.8192 90.8749C43.9879 89.67 63.5128 89.8057 83.9824 90.8749V88.5976C63.6005 87.3415 43.9534 87.2275 25.2612 88.5976C21.7654 88.5976 18.9316 91.4314 18.9316 94.9267V99.4821C18.9316 102.978 21.7654 105.811 25.261 105.811H83.9824V103.534H25.8192C23.4053 103.534 21.4485 101.577 21.4485 99.1627V95.2459C21.4485 92.832 23.4053 90.8749 25.8192 90.8749Z" fill="#CC7587"/>
<g id="Group_5">
<path id="Vector_20" d="M25.2612 88.5975C43.9534 87.2275 63.6003 87.3414 83.9824 88.5975V27.5787C63.0161 25.918 43.0696 25.6907 24.6275 27.5787C21.4819 27.5787 18.9316 30.129 18.9316 33.2746V94.9267C18.9316 91.4313 21.7654 88.5975 25.2612 88.5975Z" fill="#DF8C9A"/>
</g>
<path id="Vector_21" d="M25.005 88.5974H24.2241V27.7659H25.005V88.5974Z" fill="#CC7587"/>
<path id="Vector_22" d="M71.1576 57.34H36.1836V43.3765H71.1576V57.34ZM36.9643 56.5591H70.377V44.1574H36.9643V56.5591Z" fill="#CC7587"/>
<path id="Vector_23" d="M45.7917 109.126H27.771V95.7153H45.7917V109.126Z" fill="#AAD1DF"/>
<path id="Vector_24" d="M47.9181 104.585H35.2842V92.4006C41.6012 92.1177 47.9181 92.1177 47.9181 92.1177V104.585Z" fill="#484B60"/>
<path id="Vector_25" d="M56.5045 106.053H38.4839V94.9269C44.2026 94.7348 50.2369 94.753 56.5045 94.9269V106.053Z" fill="#FFC15B"/>
</g>
</g>
</g>
</g>
</svg>
