<svg width="120" height="120" viewBox="0 0 120 120" fill="none" xmlns="http://www.w3.org/2000/svg">
<g id="science-book-svgrepo-com 1" clip-path="url(#clip0_197_1996)">
<path id="Vector" d="M120 3.00008C120 1.61937 118.881 0.5 117.5 0.5H2.50008C1.11914 0.5 0 1.61937 0 3.00008V110C0 111.381 1.11914 112.5 2.50008 112.5H49.0917C50.988 116.63 55.1576 119.5 60 119.5C64.8422 119.5 69.0117 116.63 70.9083 112.5H117.5C118.881 112.5 120 111.381 120 110L120 3.00008Z" fill="#FF675C"/>
<path id="Vector_2" d="M120 3.00008C120 1.61937 118.881 0.5 117.5 0.5H2.50008C1.11914 0.5 0 1.61937 0 3.00008V110C0 111.381 1.11914 112.5 2.50008 112.5H49.0917C50.988 116.63 55.1576 119.5 60 119.5C64.8422 119.5 69.0117 116.63 70.9083 112.5H117.5C118.881 112.5 120 111.381 120 110L120 3.00008Z" fill="#9FD25A"/>
<path id="Vector_3" d="M68.9041 107.5C68.1715 107.5 67.5059 107.927 67.2002 108.593L66.3642 110.414C65.2244 112.896 62.7262 114.5 60 114.5C57.2738 114.5 54.7755 112.896 53.6358 110.414L52.7995 108.592C52.4937 107.927 51.8283 107.5 51.0956 107.5H0V110C0 111.381 1.11914 112.5 2.50008 112.5H49.0917C50.988 116.63 55.1576 119.5 60 119.5C64.8422 119.5 69.0117 116.63 70.9083 112.5H117.5C118.881 112.5 120 111.381 120 110V107.5H68.9041V107.5Z" fill="#6EAD32"/>
<path id="Vector_4" d="M113 0.5H60.0001H6.75008C5.36937 0.5 4.25 1.61914 4.25 3.00008V101.125C4.25 102.161 5.08953 103 6.125 103H113.625C114.661 103 115.5 102.161 115.5 101.125V3.00008C115.5 1.61937 114.381 0.5 113 0.5Z" fill="#E0DDDF"/>
<path id="Vector_5" d="M115.5 3.00008C115.5 1.61937 114.381 0.5 113 0.5H60.083V82.5001H115.5V3.00008Z" fill="#F9F8F9"/>
<path id="Vector_6" d="M60.0001 0.5H6.75008C5.36937 0.5 4.25 1.61914 4.25 3.00008V82.5001H60.0001L60.0833 0.5H60.0001Z" fill="white"/>
<path id="Vector_7" d="M62.0001 0.5H58V103H62.0001V0.5Z" fill="#C1BCBF"/>
<path id="Vector_8" d="M104.5 82.4999L115.5 71.5H106.375C105.34 71.5 104.5 72.3395 104.5 73.375V82.4999Z" fill="#E0DDDF"/>
<g id="Group">
<path id="Vector_9" d="M52 91.625H21.25C20.2145 91.625 19.375 90.7857 19.375 89.75C19.375 88.7143 20.2145 87.875 21.25 87.875H52C53.0355 87.875 53.875 88.7143 53.875 89.75C53.875 90.7859 53.0355 91.625 52 91.625Z" fill="#C1BCBF"/>
<path id="Vector_10" d="M98.7499 91.625H68.25C67.2143 91.625 66.375 90.7857 66.375 89.75C66.375 88.7143 67.2143 87.875 68.25 87.875H98.7499C99.7856 87.875 100.625 88.7143 100.625 89.75C100.625 90.7859 99.7859 91.625 98.7499 91.625Z" fill="#C1BCBF"/>
<path id="Vector_11" d="M52 98.375H21.25C20.2145 98.375 19.375 97.5357 19.375 96.5C19.375 95.4643 20.2145 94.625 21.25 94.625H52C53.0355 94.625 53.875 95.4643 53.875 96.5C53.875 97.5359 53.0355 98.375 52 98.375Z" fill="#C1BCBF"/>
<path id="Vector_12" d="M98.7499 98.375H68.25C67.2143 98.375 66.375 97.5357 66.375 96.5C66.375 95.4643 67.2143 94.625 68.25 94.625H98.7499C99.7856 94.625 100.625 95.4643 100.625 96.5C100.625 97.5359 99.7859 98.375 98.7499 98.375Z" fill="#C1BCBF"/>
</g>
<g id="Group_2">
<path id="Vector_13" d="M98.9999 29.375H79C77.9643 29.375 77.125 28.5357 77.125 27.5C77.125 26.4643 77.9643 25.625 79 25.625H98.9999C100.036 25.625 100.875 26.4643 100.875 27.5C100.875 28.5359 100.036 29.375 98.9999 29.375Z" fill="#5293C4"/>
<path id="Vector_14" d="M98.9999 45.375H79C77.9643 45.375 77.125 44.5357 77.125 43.5C77.125 42.4643 77.9643 41.625 79 41.625H98.9999C100.036 41.625 100.875 42.4643 100.875 43.5C100.875 44.5357 100.036 45.375 98.9999 45.375Z" fill="#5293C4"/>
<path id="Vector_15" d="M98.9999 61.3752H79C77.9643 61.3752 77.125 60.5359 77.125 59.5002C77.125 58.4645 77.9643 57.6252 79 57.6252H98.9999C100.036 57.6252 100.875 58.4645 100.875 59.5002C100.875 60.5359 100.036 61.3752 98.9999 61.3752Z" fill="#5293C4"/>
</g>
<g id="Group_3">
<path id="Vector_16" d="M53.2192 72.0756L48.0341 67.6368V58.2684L53.3355 52.8869C54.0623 52.1491 54.0534 50.962 53.3155 50.2354C52.5775 49.5081 51.3904 49.518 50.6641 50.2551L45.9721 55.0181L38.0552 50.447C37.4751 50.1121 36.7602 50.1121 36.1802 50.447L27.1387 55.6673C26.5586 56.0022 26.2012 56.6209 26.2012 57.291V67.7313C26.2012 68.4013 26.5586 69.0201 27.1387 69.355L35.125 73.9661V76.4999C35.125 77.5356 35.9645 78.3749 37 78.3749C38.0355 78.3749 38.875 77.5356 38.875 76.4999V74.1023L45.4117 70.3284L50.7805 74.9247C51.134 75.2275 51.5676 75.3754 51.9991 75.3754C52.5278 75.3754 53.0533 75.153 53.4243 74.7196C54.0977 73.9323 54.006 72.749 53.2192 72.0756ZM44.2844 66.6489L37.1177 70.7866L29.9512 66.6489V58.3736L37.1177 54.2359L44.2844 58.3736V66.6489Z" fill="#FBC96C"/>
<path id="Vector_17" d="M33.1597 58.196C32.1242 58.196 31.2847 59.0353 31.2847 60.071V65.071C31.2847 66.1067 32.1242 66.946 33.1597 66.946C34.1951 66.946 35.0347 66.1067 35.0347 65.071V60.071C35.0347 59.0356 34.1951 58.196 33.1597 58.196Z" fill="#FBC96C"/>
</g>
<g id="Group_4">
<path id="Vector_18" d="M32.9376 35.7158L23.8958 30.4955C23.3158 30.1606 22.6009 30.1606 22.0208 30.4955L14.6645 34.7429L9.29568 30.1466C8.50888 29.473 7.32576 29.5648 6.65193 30.3516C5.97834 31.1382 6.07021 32.3218 6.85701 32.9952L12.0421 37.434V46.8024L6.74076 52.1839C6.01396 52.9217 6.02287 54.1088 6.76068 54.8354C7.12584 55.1952 7.60115 55.3747 8.07646 55.3747C8.56091 55.3747 9.04537 55.1879 9.41217 54.8157L14.1041 50.0527L22.0208 54.6237C22.3108 54.7913 22.6347 54.875 22.9583 54.875C23.282 54.875 23.6059 54.7913 23.8958 54.6237L32.9376 49.4035C33.5176 49.0686 33.8751 48.4498 33.8751 47.7798V37.3395C33.8751 36.6699 33.5176 36.0509 32.9376 35.7158ZM30.1251 46.6974L22.9583 50.8351L15.7919 46.6974V38.4221L22.9583 34.2845L30.1251 38.4221V46.6974Z" fill="#5CC4E0"/>
<path id="Vector_19" d="M26.917 46.8752C27.9525 46.8752 28.792 46.0359 28.792 45.0002V40.0002C28.792 38.9645 27.9525 38.1252 26.917 38.1252C25.8815 38.1252 25.042 38.9645 25.042 40.0002V45.0002C25.042 46.0359 25.8815 46.8752 26.917 46.8752Z" fill="#5CC4E0"/>
</g>
<g id="Group_5">
<path id="Vector_20" d="M53.3357 32.113L48.0344 26.7315V17.363L53.2195 12.9242C54.006 12.2509 54.0979 11.0673 53.4245 10.2807C52.7512 9.49391 51.5673 9.40227 50.7808 10.0756L45.412 14.672L38.875 10.8978V6.5C38.875 5.4643 38.0355 4.625 37 4.625C35.9645 4.625 35.125 5.4643 35.125 6.5V11.0338L27.1387 15.6448C26.5586 15.9798 26.2012 16.5985 26.2012 17.2686V27.7088C26.2012 28.3789 26.5586 28.9977 27.1387 29.3326L36.1802 34.5528C36.4701 34.7204 36.794 34.8041 37.1177 34.8041C37.4413 34.8041 37.7652 34.7204 38.0552 34.5528L45.9721 29.9818L50.6641 34.7448C51.0311 35.117 51.5153 35.3037 51.9998 35.3037C52.4748 35.3037 52.9502 35.1242 53.3155 34.7645C54.0534 34.0381 54.0625 32.8508 53.3357 32.113ZM44.2844 26.6263L37.1177 30.7639L29.9512 26.6263V18.3512L37.1177 14.2135L44.2844 18.3512V26.6263Z" fill="#F78B4F"/>
<path id="Vector_21" d="M33.1597 18.054C32.1242 18.054 31.2847 18.8933 31.2847 19.929V24.9289C31.2847 25.9646 32.1242 26.8039 33.1597 26.8039C34.1951 26.8039 35.0347 25.9646 35.0347 24.9289V19.929C35.0347 18.8933 34.1951 18.054 33.1597 18.054Z" fill="#F78B4F"/>
</g>
</g>
<defs>
<clipPath id="clip0_197_1996">
<rect width="120" height="120" fill="white"/>
</clipPath>
</defs>
</svg>
