<svg width="120" height="120" viewBox="0 0 120 120" fill="none" xmlns="http://www.w3.org/2000/svg">
<g id="travel-svgrepo-com 1">
<g id="Group">
<g id="Group_2">
<path id="Vector" d="M60 13.125C34.1119 13.125 13.125 34.1119 13.125 60H106.875C106.875 34.1119 85.8881 13.125 60 13.125Z" fill="#6BC4D2"/>
<path id="Vector_2" d="M60 106.875C85.8881 106.875 106.875 85.8881 106.875 60H13.125C13.125 85.8881 34.1119 106.875 60 106.875Z" fill="#508D9B"/>
</g>
<g id="Group_3">
<path id="Vector_3" d="M114.765 42.3187L111.178 39.8212L114.238 36.6244L102.666 21.0806L101.94 21.8212C101.216 22.5619 100.029 22.5731 99.2887 21.8494L97.4869 20.0869C96.7462 19.3631 96.735 18.1762 97.4587 17.4356L98.1 16.7794L82.9387 5.98874L81.1294 7.79624L77.235 5.58374L75.0469 7.76999L72.8081 6.47812L28.9331 51.3L42.795 78.3L70.0912 91.5881L113.966 46.7644L111.874 45.3394L114.765 42.3187ZM87.09 41.8612L90.06 43.7812C91.0556 44.4244 91.2112 45.8194 90.3825 46.6669L83.5031 53.6962C82.8956 54.3169 81.9431 54.4387 81.1987 53.9925L78.1444 52.1606C77.1056 51.5381 76.9219 50.1075 77.7694 49.2412L84.735 42.1256C85.3556 41.4881 86.34 41.3775 87.09 41.8612ZM64.9462 62.3362L71.7019 55.4344C72.3131 54.81 73.275 54.69 74.0212 55.1456L77.0531 57.0019C78.0806 57.63 78.2569 59.0512 77.415 59.9119L70.7325 66.7387C70.1344 67.3481 69.2006 67.4794 68.46 67.0537L65.3531 65.2744C64.29 64.665 64.0894 63.2137 64.9462 62.3362ZM58.2881 55.8187C57.4294 56.6962 55.9744 56.5256 55.3425 55.4737L53.4956 52.4062C53.055 51.675 53.1656 50.7375 53.7619 50.1281L60.4444 43.3012C61.2881 42.4406 62.7112 42.5869 63.3619 43.5994L65.2819 46.5919C65.7544 47.3269 65.655 48.2906 65.0437 48.9169L58.2881 55.8187ZM66.5306 37.0837L73.41 30.0544C74.2387 29.2069 75.6375 29.3325 76.3031 30.315L78.285 33.2437C78.7837 33.9825 78.6956 34.9687 78.0731 35.6062L71.1075 42.7219C70.26 43.5881 68.8256 43.4344 68.1806 42.4087L66.2831 39.3937C65.82 38.6587 65.9231 37.7044 66.5306 37.0837ZM71.3512 14.4469L72.8175 12.9806C73.5356 12.2625 74.7319 12.3731 75.3037 13.2112L84.8081 27.1237C85.245 27.7631 85.17 28.62 84.6281 29.1731L83.0137 30.8231C82.2919 31.56 81.0731 31.4456 80.5031 30.585L71.1487 16.4887C70.7194 15.8475 70.8056 14.9925 71.3512 14.4469ZM60.4931 25.7137L66.3619 19.7175C67.1906 18.87 68.5894 18.9956 69.255 19.9781L71.2369 22.9069C71.7356 23.6456 71.6475 24.6319 71.025 25.2694L65.07 31.3519C64.2225 32.2181 62.7881 32.0644 62.1431 31.0387L60.2456 28.0237C59.7844 27.2887 59.8875 26.3325 60.4931 25.7137ZM47.8312 38.6494L53.6812 32.6737C54.525 31.8131 55.9481 31.9594 56.5987 32.9719L58.5187 35.9644C58.9912 36.6994 58.8919 37.6631 58.2806 38.2894L52.3575 44.34C51.4987 45.2175 50.0437 45.0469 49.4119 43.995L47.565 40.9275C47.1244 40.1962 47.235 39.2587 47.8312 38.6494ZM36.5531 56.9494L34.8937 53.6906C34.5281 52.9744 34.6612 52.1044 35.2256 51.5287L41.0869 45.5419C41.9494 44.6606 43.4119 44.8369 44.04 45.8981L45.87 48.9825C46.3031 49.7137 46.1906 50.6437 45.5962 51.2512L39.5625 57.4106C38.6662 58.3275 37.1344 58.0931 36.5531 56.9494ZM42.4462 68.4637L40.7869 65.205C40.4212 64.4887 40.5544 63.6187 41.1187 63.0431L47.5462 56.4769C48.4087 55.5956 49.8712 55.7719 50.4994 56.8312L52.3294 59.9156C52.7625 60.6469 52.65 61.5769 52.0556 62.1844L45.4575 68.925C44.5612 69.8419 43.0294 69.6075 42.4462 68.4637ZM55.9369 80.0325L52.6425 78.4444C51.4875 77.8875 51.2194 76.3612 52.1175 75.4444L58.7156 68.7037C59.31 68.0962 60.2381 67.965 60.9769 68.3831L64.1006 70.1456C65.1731 70.7512 65.3812 72.21 64.5187 73.0894L58.0912 79.6556C57.5287 80.2312 56.6606 80.3831 55.9369 80.0325ZM75.5906 79.3162L69.7294 85.3031C69.1669 85.8787 68.2987 86.0306 67.575 85.68L64.2806 84.0919C63.1256 83.535 62.8575 82.0087 63.7556 81.0919L69.7856 74.9306C70.38 74.3231 71.3081 74.1919 72.0469 74.61L75.1706 76.3725C76.245 76.9762 76.4512 78.435 75.5906 79.3162ZM88.185 66.4481L82.335 72.4237C81.7369 73.0331 80.8031 73.1644 80.0625 72.7387L76.9556 70.9594C75.8906 70.35 75.69 68.8987 76.5487 68.0212L82.4719 61.9706C83.0831 61.3462 84.045 61.2262 84.7912 61.6819L87.8231 63.5381C88.8525 64.1662 89.0287 65.5856 88.185 66.4481ZM100.867 53.4919L94.9987 59.4881C94.3912 60.1087 93.4387 60.2306 92.6944 59.7844L89.64 57.9525C88.6012 57.33 88.4175 55.8994 89.265 55.0331L95.22 48.9506C95.8425 48.3131 96.8287 48.2044 97.5769 48.6881L100.547 50.6081C101.542 51.2494 101.698 52.6444 100.867 53.4919ZM107.503 46.9331L106.069 48.4312C105.534 48.9881 104.681 49.0912 104.031 48.6787L89.7375 39.6262C88.8656 39.075 88.725 37.8581 89.4469 37.1212L91.0612 35.4712C91.6031 34.9181 92.4581 34.8244 93.1069 35.2462L107.22 44.4506C108.071 45.0075 108.208 46.2 107.503 46.9331Z" fill="#8579A3"/>
<path id="Vector_4" d="M103.77 19.7344C103.554 20.2969 102.426 21.3262 101.942 21.8212C101.218 22.5619 100.031 22.5731 99.2905 21.8494L97.4886 20.0869C96.748 19.3631 96.7368 18.1762 97.4605 17.4356C97.9443 16.9406 98.9511 15.7913 99.508 15.5625C98.7243 16.2431 98.6061 17.5144 99.4274 18.3188L101.017 19.875C101.837 20.6794 103.106 20.5331 103.77 19.7344ZM83.5011 53.6963L90.3805 46.6669C91.2093 45.8194 91.0536 44.4244 90.058 43.7812L87.088 41.8612C86.3399 41.3775 85.3536 41.4881 84.7311 42.1237L77.7655 49.2394C76.918 50.1056 77.1018 51.5363 78.1405 52.1588L81.1949 53.9906C81.9411 54.4387 82.8936 54.3169 83.5011 53.6963ZM94.9986 59.4881L100.867 53.4919C101.696 52.6444 101.541 51.2494 100.545 50.6062L97.5749 48.6862C96.8268 48.2025 95.8405 48.3131 95.218 48.9487L89.263 55.0312C88.4155 55.8975 88.5993 57.3281 89.638 57.9506L92.6924 59.7825C93.4386 60.2306 94.3911 60.1069 94.9986 59.4881ZM66.283 39.3937L68.1805 42.4088C68.8255 43.4344 70.2599 43.5881 71.1074 42.7219L78.073 35.6062C78.6955 34.9688 78.7855 33.9825 78.2849 33.2437L76.303 30.315C75.6374 29.3325 74.2405 29.2069 73.4099 30.0544L66.5305 37.0837C65.923 37.7044 65.8199 38.6588 66.283 39.3937ZM60.2474 28.0238L62.1449 31.0388C62.7899 32.0644 64.2243 32.2181 65.0718 31.3519L71.0268 25.2694C71.6493 24.6319 71.7393 23.6456 71.2386 22.9069L69.2568 19.9781C68.5911 18.9956 67.1943 18.87 66.3636 19.7175L60.4949 25.7137C59.8874 26.3325 59.7843 27.2887 60.2474 28.0238ZM47.5649 40.9275L49.4118 43.995C50.0436 45.0469 51.5005 45.2175 52.3574 44.34L58.2805 38.2894C58.8918 37.665 58.9911 36.7013 58.5186 35.9644L56.5986 32.9719C55.948 31.9575 54.523 31.8113 53.6811 32.6737L47.8311 38.6494C47.2349 39.2588 47.1243 40.1962 47.5649 40.9275Z" fill="#EFEAE0"/>
<path id="Vector_5" d="M99.4255 18.3188C98.3943 17.3101 98.8424 15.5607 100.232 15.1726C104.121 14.0851 105.401 14.0926 104.141 18.9994C103.783 20.3982 102.045 20.8838 101.014 19.8732L99.4255 18.3188ZM70.093 91.5863L42.8043 78.3038L28.9349 51.2982L29.9268 50.2857L28.033 49.3276L24.7949 52.6369L39.6337 81.5382L68.8443 95.7563L72.0824 92.4469L71.0849 90.5738L70.093 91.5863ZM111.18 39.8213L114.767 42.3188L112.472 38.4732L111.18 39.8213ZM111.876 45.3376L113.932 46.7401L112.626 44.5519L111.876 45.3376ZM70.7324 66.7407L77.4149 59.9138C78.2568 59.0532 78.0805 57.6319 77.053 57.0038L74.0212 55.1476C73.2749 54.6919 72.313 54.8101 71.7018 55.4344L64.9462 62.3363C64.0874 63.2138 64.2899 64.6651 65.353 65.2744L68.4599 67.0538C69.2024 67.4794 70.1362 67.3501 70.7324 66.7407ZM82.3368 72.4238L88.1868 66.4482C89.0287 65.5876 88.8524 64.1663 87.8249 63.5382L84.793 61.6819C84.0468 61.2263 83.0849 61.3444 82.4737 61.9688L76.5505 68.0194C75.6918 68.8969 75.8943 70.3482 76.9574 70.9576L80.0643 72.7369C80.8049 73.1626 81.7387 73.0332 82.3368 72.4238ZM58.0912 79.6557L64.5187 73.0894C65.3812 72.2082 65.173 70.7513 64.1005 70.1457L60.9768 68.3832C60.238 67.9651 59.3099 68.0982 58.7155 68.7038L52.1174 75.4444C51.2212 76.3613 51.4874 77.8876 52.6424 78.4444L55.9368 80.0326C56.6605 80.3832 57.5268 80.2313 58.0912 79.6557ZM69.7293 85.3032L75.5905 79.3163C76.453 78.4351 76.2449 76.9782 75.1724 76.3726L72.0487 74.6101C71.3099 74.1919 70.3818 74.3251 69.7874 74.9307L63.7574 81.0919C62.8612 82.0088 63.1274 83.5351 64.2824 84.0919L67.5768 85.6801C68.2987 86.0307 69.1668 85.8788 69.7293 85.3032ZM53.4955 52.4063L55.3424 55.4738C55.9743 56.5257 57.4312 56.6963 58.288 55.8188L65.0437 48.9169C65.6549 48.2926 65.7543 47.3288 65.2818 46.5919L63.3618 43.5994C62.7112 42.5851 61.2862 42.4388 60.4443 43.3013L53.7618 50.1282C53.1637 50.7376 53.0549 51.6751 53.4955 52.4063ZM40.7887 65.2051L42.448 68.4638C43.0293 69.6076 44.5612 69.8419 45.4593 68.9251L52.0574 62.1844C52.6518 61.5769 52.7643 60.6469 52.3312 59.9157L50.5012 56.8313C49.873 55.7719 48.4105 55.5957 47.548 56.4769L41.1205 63.0432C40.5562 63.6188 40.423 64.4888 40.7887 65.2051ZM34.8937 53.6907L36.553 56.9494C37.1343 58.0932 38.6662 58.3276 39.5643 57.4107L45.5943 51.2494C46.1887 50.6419 46.3012 49.7119 45.868 48.9807L44.038 45.8963C43.4099 44.8369 41.9474 44.6607 41.0849 45.5419L35.2237 51.5288C34.6612 52.1026 34.528 52.9726 34.8937 53.6907Z" fill="#685683"/>
<path id="Vector_6" d="M104.031 48.6788L89.7376 39.6263C88.8657 39.0732 88.7251 37.8582 89.447 37.1213L91.0613 35.4713C91.6032 34.9182 92.4582 34.8244 93.107 35.2482L107.22 44.4525C108.071 45.0075 108.208 46.2 107.505 46.9332L106.069 48.4313C105.534 48.9882 104.681 49.0913 104.031 48.6788ZM71.147 16.4907L80.5013 30.5869C81.0713 31.4475 82.2901 31.5619 83.012 30.825L84.6263 29.175C85.1682 28.6219 85.2432 27.765 84.8063 27.1257L75.302 13.2132C74.7282 12.3732 73.5338 12.2625 72.8157 12.9825L71.3495 14.4488C70.8057 14.9925 70.7195 15.8475 71.147 16.4907Z" fill="#3A3A3A"/>
</g>
</g>
</g>
</svg>
