<svg width="25" height="25" viewBox="0 0 25 25" fill="none" xmlns="http://www.w3.org/2000/svg">
<g id="Icons">
<path id="Vector" d="M22.9168 12.4999H16.6668L14.5835 15.6249H10.4168L8.3335 12.4999H2.0835M22.9168 12.4999V18.7499C22.9168 19.3024 22.6973 19.8323 22.3066 20.223C21.9159 20.6137 21.386 20.8332 20.8335 20.8332H4.16683C3.6143 20.8332 3.08439 20.6137 2.69369 20.223C2.30299 19.8323 2.0835 19.3024 2.0835 18.7499V12.4999M22.9168 12.4999L19.3231 5.32282C19.1506 4.97572 18.8847 4.68362 18.5553 4.47936C18.2259 4.27509 17.8461 4.16677 17.4585 4.16656H7.54183C7.15424 4.16677 6.7744 4.27509 6.445 4.47936C6.11561 4.68362 5.84972 4.97572 5.67725 5.32282L2.0835 12.4999" stroke="black" stroke-width="1.33333" stroke-linecap="round" stroke-linejoin="round"/>
</g>
</svg>
